<?xml version="1.0" standalone="no"?>
<!DOCTYPE svg PUBLIC "-//W3C//DTD SVG 1.1//EN" "http://www.w3.org/Graphics/SVG/1.1/DTD/svg11.dtd" >
<svg xmlns="http://www.w3.org/2000/svg">
<metadata>
Created by FontForge 20120731 at Wed Mar  8 09:52:35 2017
 By admin
</metadata>
<defs>
<font id="iconfont" horiz-adv-x="1024" >
  <font-face 
    font-family="iconfont"
    font-weight="500"
    font-stretch="normal"
    units-per-em="1024"
    panose-1="2 0 6 3 0 0 0 0 0 0"
    ascent="896"
    descent="-128"
    x-height="792"
    bbox="-9 -196.5 1220 929"
    underline-thickness="0"
    underline-position="0"
    unicode-range="U+0078-E69B"
  />
<missing-glyph 
 />
    <glyph glyph-name=".notdef" 
 />
    <glyph glyph-name=".notdef" 
 />
    <glyph glyph-name=".null" horiz-adv-x="0" 
 />
    <glyph glyph-name="nonmarkingreturn" horiz-adv-x="341" 
 />
    <glyph glyph-name="x" unicode="x" horiz-adv-x="1001" 
d="M281 543q-27 -1 -53 -1h-83q-18 0 -36.5 -6t-32.5 -18.5t-23 -32t-9 -45.5v-76h912v41q0 16 -0.5 30t-0.5 18q0 13 -5 29t-17 29.5t-31.5 22.5t-49.5 9h-133v-97h-438v97zM955 310v-52q0 -23 0.5 -52t0.5 -58t-10.5 -47.5t-26 -30t-33 -16t-31.5 -4.5q-14 -1 -29.5 -0.5
t-29.5 0.5h-32l-45 128h-439l-44 -128h-29h-34q-20 0 -45 1q-25 0 -41 9.5t-25.5 23t-13.5 29.5t-4 30v167h911zM163 247q-12 0 -21 -8.5t-9 -21.5t9 -21.5t21 -8.5q13 0 22 8.5t9 21.5t-9 21.5t-22 8.5zM316 123q-8 -26 -14 -48q-5 -19 -10.5 -37t-7.5 -25t-3 -15t1 -14.5
t9.5 -10.5t21.5 -4h37h67h81h80h64h36q23 0 34 12t2 38q-5 13 -9.5 30.5t-9.5 34.5q-5 19 -11 39h-368zM336 498v228q0 11 2.5 23t10 21.5t20.5 15.5t34 6h188q31 0 51.5 -14.5t20.5 -52.5v-227h-327z" />
    <glyph glyph-name="wechat" unicode="&#xe62e;" horiz-adv-x="1000" 
d="M676 567q16 0 34 -2q-23 106 -123.5 176t-229.5 70q-95 0 -175.5 -39.5t-127.5 -108t-47 -150.5q0 -138 140 -236l-35 -106l122 62q89 -18 123 -18q15 0 33 2q-11 37 -11 73q0 115 86.5 196t210.5 81zM485.5 669q22.5 0 38.5 -16t16 -38.5t-16 -38t-38.5 -15.5t-38 15.5
t-15.5 38t15.5 38.5t38 16zM240.5 560q-22.5 0 -38 15.5t-15.5 38t15.5 38.5t38 16t38.5 -16t16 -38.5t-16 -38t-38.5 -15.5zM994 293q0 68 -41.5 127t-110 93t-146.5 34q-124 0 -211 -74.5t-87 -179.5t87 -179.5t211 -74.5q35 0 105 18l96 -53l-26 87q123 92 123 202z
M605 332q-16 0 -27.5 11.5t-11.5 27.5t11.5 27t27.5 11t27 -11t11 -27t-11 -27.5t-27 -11.5zM797 330q-16 0 -27 11.5t-11 27.5t11 27t27 11t27.5 -11t11.5 -27t-11.5 -27.5t-27.5 -11.5z" />
    <glyph glyph-name="face" unicode="&#xe640;" 
d="M969.5 433q-13.5 124 -85.5 223t-184 148.5t-236.5 36.5t-223.5 -85.5t-149 -184.5t-36.5 -236t85.5 -223t184 -148.5t236.5 -36.5t223.5 85.5t149 184.5t36.5 236zM648 572q30 0 51.5 -21.5t21.5 -51.5t-21.5 -51.5t-51.5 -21.5t-51.5 21.5t-21.5 51.5t21.5 51.5
t51.5 21.5zM376 572q30 0 51.5 -21.5t21.5 -51.5t-21.5 -51.5t-51.5 -21.5t-51.5 21.5t-21.5 51.5t21.5 51.5t51.5 21.5zM737 259q-16 -73 -81.5 -120t-143.5 -47q-81 0 -146.5 48t-79.5 123q0 19 10.5 28t22.5 9h380q6 0 11.5 -1t13.5 -4.5t12 -13t1 -22.5z" />
    <glyph glyph-name="uneye" unicode="&#xe643;" 
d="M516 546q-68 0 -116.5 -48t-48.5 -116t48.5 -116.5t116.5 -48.5t116 48.5t48 116.5t-48 116t-116 48zM516 258q-51 0 -87.5 36.5t-36.5 87.5t36.5 87t87.5 36t87 -36t36 -87t-36 -87.5t-87 -36.5zM511.5 704q-50.5 0 -102.5 -17.5t-95 -46t-82.5 -62.5t-69.5 -68
t-52.5 -62.5t-34.5 -46l-12 -17.5q5 -7 12.5 -18.5t33.5 -45t53 -63.5t69 -67t83.5 -63.5t94 -45t103 -18.5t102.5 18t95 46t83 62.5t70 68.5t52.5 62.5t34 45.5t11.5 18q-4 6 -12 17.5t-33.5 45t-53 63.5t-69 67t-83.5 63.5t-94.5 45t-103 18.5zM799 252q-67 -66 -134 -103
q-79 -45 -153 -45t-154 45q-66 37 -133 103q-61 59 -112 132q51 72 112 132q67 66 133 103q80 44 154 44t153 -44q67 -37 134 -103q61 -60 112 -132q-51 -73 -112 -132z" />
    <glyph glyph-name="return" unicode="&#xe636;" 
d="M509 521q-90 -8 -155.5 -60t-65.5 -133q0 -92 64.5 -157t156.5 -65t156.5 65t64.5 157h165q0 -105 -51.5 -194.5t-140.5 -141.5t-194 -52t-194 52t-140.5 141.5t-51.5 194.5q0 100 54.5 181t142 127t189.5 52v140l276 -222v-28l-276 -194v137z" />
    <glyph glyph-name="right" unicode="&#xe63f;" 
d="M420 40l-360 348l90 93l264 -254l454 501l96 -87z" />
    <glyph glyph-name="shutdown" unicode="&#xe634;" 
d="M835 660l-60 63l-263 -275l-263 275l-60 -63l262 -276l-262 -276l60 -63l263 275l263 -275l60 63l-262 276z" />
    <glyph glyph-name="circle" unicode="&#xe629;" 
d="M524 631q97 0 166 -69t69 -166t-69 -165.5t-166 -68.5t-165.5 68.5t-68.5 165.5t68.5 166t165.5 69zM524 774q-102 0 -189 -50.5t-138 -137.5t-51 -189.5t51 -189.5t138 -138t189.5 -51t189.5 51t137.5 138t50.5 189.5t-50.5 189.5t-137.5 137.5t-190 50.5v0z" />
    <glyph glyph-name="edit" unicode="&#xe638;" 
d="M366 70l-192 192q-7 7 -7 16.5t7 15.5l432 433q7 6 16.5 6t15.5 -6l192 -193q7 -6 7 -15.5t-7 -16.5l-432 -432q-7 -7 -16 -7t-16 7zM718 839q20 20 48 20t48 -20l128 -128q20 -20 20 -48.5t-20 -47.5l-64 -65l-224 225zM62 -42l64 288l224 -224l-288 -64v0z" />
    <glyph glyph-name="pic" unicode="&#xe63b;" 
d="M288.5 384q39.5 0 67.5 28t28 68t-28 68t-67.5 28t-67.5 -28t-28 -68t28 -68t67.5 -28zM66 703v-638h892v638h-892zM895 172l-128 212l-144 -120l-111 184l-383 -319v510h766v-467z" />
    <glyph glyph-name="news" unicode="&#xe63c;" 
d="M233 553h299v-212h-299v212zM662 553h128v-82h-128v82zM662 425h125v-84h-125v84zM233 254h557v-41h-557v41zM876 640v-513h-727v-84h727q3 -1 9 -1.5t21 2t26 10t20 27t9 48.5v511q0 4 0.5 9.5t-2.5 20t-10.5 26t-26.5 21t-47 9.5h-726q-3 0 -9 -0.5t-21 -5.5t-26.5 -13
t-21 -25.5t-9.5 -41.5h814zM149 640v-597q-3 -1 -9 -1.5t-21 2.5t-26.5 10.5t-21 26t-9.5 46.5v513h87zM149 640z" />
    <glyph glyph-name="t" unicode="&#xe63e;" 
d="M119 29h681v-94h-681v94zM119 125h196l438 380l-195 190l-391 -380zM606 742l194 -188l109 94l-184 190zM606 742z" />
    <glyph glyph-name="comment" unicode="&#xe635;" 
d="M869 822h-717q-49 0 -84 -35t-35 -84v-478q0 -49 35 -84t84 -35h235l124 -151l123 151h235q49 0 84 35t35 84v478q0 49 -35 84t-84 35zM240 373q-38 0 -65 27t-27 65t27 64.5t65 26.5t64.5 -26.5t26.5 -64.5t-26.5 -65t-64.5 -27zM509 373q-38 0 -64.5 27t-26.5 65
t26.5 64.5t64.5 26.5t64.5 -26.5t26.5 -64.5t-26.5 -65t-64.5 -27zM778 373q-38 0 -64.5 27t-26.5 65t26.5 64.5t64.5 26.5t65 -26.5t27 -64.5t-27 -65t-65 -27z" />
    <glyph glyph-name="plus" unicode="&#xe63a;" 
d="M922 419h-376v375q0 14 -10 24t-24 10t-24.5 -10t-10.5 -24v-375h-375q-14 0 -24 -10.5t-10 -24.5t10 -24.5t24 -10.5h375v-375q0 -14 10.5 -24t24.5 -10t24 10t10 24v375h376q14 0 24 10.5t10 24.5t-10 24.5t-24 10.5z" />
    <glyph glyph-name="video" unicode="&#xe63d;" 
d="M971 790q0 17 -11 28t-28 11h-841q-16 0 -27 -11t-11 -28v-654q0 -16 16.5 -32.5t32.5 -16.5h820q16 0 32.5 16.5t16.5 32.5v654zM897 161h-770v594h770v-594zM301 -61h471v74h-471v-74zM376 607v-322l322 161z" />
    <glyph glyph-name="management" unicode="&#xe633;" 
d="M574 -35l15 86l-63 62q-35 33 -21 76q14 42 62 49l76 11q-5 4 -9 7q-14 12 -21 26q-6 14 -7 28t2 27q2 10 5 18q3 7 9 13q7 6 13 10q7 5 15 12q6 6 12 17q6 12 11 23q4 13 8 27q9 3 16 10q7 6 13 17q6 12 8 30q2 14 0 24q-2 8 -6 16q-3 7 -9 10q0 37 -5 71q-4 30 -15 64
t-34 63q-10 12 -25 24q-15 11 -37 22q-19 9 -43 16q-24 6 -50 6q-19 0 -42 -4q-22 -4 -43 -12q-21 -9 -41.5 -24.5t-37.5 -39.5q-18 -26 -28 -58q-9 -32 -12 -60q-5 -32 -4 -67q-8 -10 -11 -19t-5 -21q-1 -12 3 -27q5 -15 11 -23t12 -12q5 -5 12 -7l9 -27q5 -13 10 -23
q5 -11 12 -17q14 -11 27 -24q12 -11 14 -33q1 -15 1 -25q0 -11 -4 -22q-4 -10 -14.5 -21t-28.5 -22q-23 -15 -54 -23q-18 -5 -128 -43q-29 -10 -50.5 -26.5t-26.5 -49.5q-7 -45 -4 -68q5 -36 14 -44q9 -6 47 -14q22 -5 65.5 -12t132.5 -15.5t173 -8.5q36 0 70 2q-1 12 1 25
v0v0zM942 178l-93 14q-11 1 -22 9t-15 18l-42 84q-5 10 -11 10q-7 0 -12 -10l-42 -84q-4 -10 -15 -18t-22 -9l-93 -14q-10 -1 -12.5 -7.5t5.5 -14.5l67 -65q8 -8 12 -21t2 -23l-15 -93q-3 -16 9 -16q4 0 9 3l83 43q10 6 23 6q14 0 23 -6l83 -43q5 -3 10 -3q12 0 9 16l-16 93
q-2 10 2.5 23t11.5 21l67 65q8 8 6 14.5t-12 7.5v0zM942 178z" />
    <glyph glyph-name="statistics" unicode="&#xe645;" 
d="M917 7h-812q-18 0 -30 12.5t-12 29.5v672q0 18 12 30t29.5 12t30 -12t12.5 -30v-630h770q17 0 29.5 -12t12.5 -29.5t-12.5 -30t-29.5 -12.5v0zM819 133h-84q-18 0 -30 12.5t-12 29.5v294q0 18 12 30t30 12h84q17 0 29.5 -12t12.5 -30v-294q0 -17 -12.5 -29.5t-29.5 -12.5
zM581 133h-84q-18 0 -30 12.5t-12 29.5v462q0 18 12 30t30 12h84q17 0 29.5 -12t12.5 -30v-462q0 -17 -12.5 -29.5t-29.5 -12.5zM343 133h-84q-18 0 -30 12.5t-12 29.5v84q0 18 12 30t30 12h84q17 0 29.5 -12t12.5 -30v-84q0 -17 -12.5 -29.5t-29.5 -12.5z" />
    <glyph glyph-name="quanxian" unicode="&#xe659;" 
d="M512 493q-27 0 -46 -19t-19 -45.5t19 -45.5t46 -19t46 19t19 45.5t-19 45.5t-46 19zM783 698q-151 0 -271 89q-120 -89 -271 -89q-53 0 -109 19v-426q0 -61 41 -141q42 -83 120 -169q70 -78 148 -137q29 -22 55 -37q11 -7 23 0q26 16 56 39q80 61 151 139q80 87 124 169
q42 79 42 137v426q-56 -19 -109 -19zM553 256v-186q0 -17 -12 -29t-29 -12v0q-17 0 -29 12t-12 29v186q-59 14 -97.5 62t-38.5 111q0 73 52 125t125 52t125 -52t52 -125q0 -63 -38.5 -111t-97.5 -62z" />
    <glyph glyph-name="check-empty" unicode="&#xe66c;" 
d="M812 794h-600q-46 0 -78 -32t-32 -77v-601q0 -45 32 -77t78 -32h600q45 0 77 32t32 77v601q0 45 -32 77t-77 32zM866 84q0 -22 -16 -38t-38 -16h-600q-23 0 -39 16t-16 38v601q0 22 16 38t39 16h600q22 0 38 -16t16 -38v-601z" />
    <glyph glyph-name="money" unicode="&#xe62f;" 
d="M644 452l349 420h-303l-180 -242l-178 242h-305l344 -420v-48h-346v-115h346v-94h-341v-100h341v-195h273v195h318v100h-318v94h327v115h-327v48z" />
    <glyph glyph-name="move-up" unicode="&#xe648;" 
d="M858 353l-308 311q-10 10 -25 10h-1.5h-1.5q-7 0 -14 -3q-7 -2 -12 -7l-278 -278q-10 -10 -10 -24t10 -24t24 -10t24 10l221 220v-604q0 -14 10.5 -24t24.5 -10t24 10t10 24v606l253 -255q10 -10 24.5 -10t24.5 10t10 24t-10 24v0v0zM899 743h-755q-14 0 -24 10t-10 24.5
t10 24.5t24 10h755q14 0 24.5 -10t10.5 -24.5t-10.5 -24.5t-24.5 -10v0v0zM899 743z" />
    <glyph glyph-name="minus" unicode="&#xe64d;" 
d="M875 409h-723q-10 0 -17 -7.5t-7 -17.5t7 -17t17 -7h723q10 0 17 7t7 17t-7 17.5t-17 7.5z" />
    <glyph glyph-name="error" unicode="&#xe642;" 
d="M195 791l724 -724l-90 -90l-724 724zM829 791l90 -90l-724 -724l-90 90z" />
    <glyph glyph-name="empty" unicode="&#xe646;" horiz-adv-x="1179" 
d="M1104 896h-1030q-30 0 -52 -22t-22 -52v-709q0 -30 22 -52t52 -22h56q6 -16 19 -31q4 -3 9 -4q107 -28 122 -70q6 -18 -5 -33q-4 -6 -3.5 -13t6.5 -11.5t13.5 -4t11.5 6.5q23 29 11 65q-20 60 -142 93q-9 10 -9 19v1q0 11 13 20v0.5t1 0.5q3 2 7 4l2 2l12 4q14 3 35 3
q47 0 108 -18l21 -9q2 -2 6 -4q14 -8 26 -16l1 -0.5l1 -0.5q37 -27 63.5 -51t36.5 -39.5t17 -29t4.5 -18t-0.5 -7.5v0v0q-3 -6 -1 -13t9 -11q4 -2 8 -2q11 0 16 10q2 4 3.5 11t-0.5 22t-10 31.5t-29 41t-53 51.5h316q-32 -27 -53 -51.5t-29.5 -41t-10.5 -31.5t-0.5 -21.5
t4.5 -11.5q5 -10 16 -10q4 0 8 2q7 3 9 10t-1 14q-1 1 -1 2.5t1 9t4 15t11.5 20.5t21 27t34.5 32.5t50 38.5q13 9 28 17q4 3 5 3l22 11q61 18 108 18q20 0 35 -4q8 -3 11 -4q1 -1 2 -1q5 -3 8 -5l1 -1q12 -9 12 -20v-1q0 -9 -8 -19q-122 -33 -142 -93q-12 -36 10 -65
q5 -6 12.5 -6.5t13 4t6.5 12t-4 12.5q0 1 -2 4.5t-3.5 11.5t1.5 16q14 42 122 71q5 1 8 4q14 15 19 31q31 1 52 22.5t21 51.5v709q0 30 -22 52t-52 22v0zM190 554h158q22 -75 -8 -160l-2 -5q-9 -25 -13 -41.5t-0.5 -53t19.5 -80.5q26 -64 0 -102v0q-1 0 -2.5 0.5t-2.5 0.5
q-31 12 -61 16q-4 1 -6 1q-14 1 -26 1h-3h-3q-10 0 -20 -1q-1 0 -3 -0.5t-3 -0.5l-1.5 -0.5t-2.5 -0.5q15 68 -9 103q-16 25 -17 85t17 116q13 37 -11 122v0zM891 214q17 44 20 80.5t-0.5 53t-12.5 41.5l-2 5q-30 85 -8 159h158q-24 -84 -11 -121q18 -56 17 -116.5
t-18 -84.5q-23 -35 -9 -103l-4 1h-3q-10 2 -24 2h-1h-2q-49 0 -99 -20q-26 39 -1 103v0zM1142 113q0 -15 -10.5 -26.5t-26.5 -11.5q-4 10 -11 19l-2 2q-1 0 -1 0.5v0.5l-1 1q-3 3 -8 7q-1 1 -2 1.5t-2 1.5q-4 2 -8 5l-1.5 1l-1.5 1q-1 0 -1 1h-1q-20 67 -1 95
q22 34 23.5 104t-19.5 129q-9 29 16 110h6q8 0 13 5t5 12.5t-5 12.5t-13 5h-231q-7 0 -12.5 -5t-5.5 -12q0 -11 10 -16q-21 -83 11 -174l2 -5q8 -22 11 -36t0 -45t-17 -68q-30 -78 1 -132q-18 -9 -36 -21v0h-410q-1 0 -4 2q-13 9 -29 18q-1 0 -4 2q32 53 2 131
q-15 37 -18 68t0 45t11 36l2 5q32 91 11 174q10 5 10 16q0 7 -5 12.5t-13 5.5h-231q-7 0 -12 -5.5t-5 -13t5 -12.5t12 -5h7q25 -81 15 -110q-20 -58 -18.5 -129t23.5 -104q18 -28 -2 -95l-0.5 -0.5l-0.5 -0.5q-1 0 -2 -1t-2 -1q-4 -3 -7 -5q-1 0 -2 -1t-2 -1q-5 -4 -8 -8
l-2 -1l-1 -1l-1 -1q-2 -2 -6 -8v-1q-3 -6 -5 -11h-56q-16 0 -27.5 11.5t-11.5 27.5v708q0 16 11.5 27t27.5 11h1029q16 0 27 -11t11 -27v-709zM551 637q0 7 -5 12t-13 5q-60 0 -136 56q-10 7 -13 9q-7 4 -14 2t-11 -8.5t-2 -13.5t8 -11q4 -2 11 -7q85 -62 157 -62q8 0 13 5
t5 13v0zM807 719q-4 -3 -13 -9q-76 -56 -137 -56q-7 0 -12 -5t-5 -12.5t5 -12.5t12 -5q73 0 158 62q9 6 10 7q7 4 8.5 11.5t-2 13.5t-11 8t-13.5 -2v0zM716 234l-120 54q-7 3 -15 0l-106 -54q-7 -4 -9.5 -11t1 -13.5t10.5 -9t14 1.5l99 50l112 -51q3 -1 7 -1q12 0 17 10
q3 7 0 14t-10 10v0zM716 234z" />
    <glyph glyph-name="recom-empty" unicode="&#xe637;" 
d="M512 -115q-97 0 -185.5 38t-152.5 102t-102 152.5t-38 185.5t38 185.5t102 152.5t152.5 102t185.5 38t185.5 -38t152.5 -102t102 -152.5t38 -185.5t-38 -185.5t-102 -152.5t-152.5 -102t-185.5 -38zM512 772q-111 0 -205.5 -54.5t-149.5 -149t-55 -205.5t55 -205.5
t149.5 -149.5t205.5 -55t205.5 55t149.5 149.5t55 205.5t-55 205.5t-149.5 149t-205.5 54.5z" />
    <glyph glyph-name="date" unicode="&#xe647;" 
d="M845 207l-292 -155q-16 -9 -39 -9t-39 9l-293 155q-10 5 -14 12h-133q4 -12 20 -21l405 -222q22 -12 53.5 -12t53.5 12l404 221q17 9 21 22h-133q-4 -7 -14 -12zM845 363l-292 -155q-16 -9 -39 -9t-39 9l-293 155q-10 5 -14 12h-133q4 -12 20 -21l405 -222
q22 -12 53.5 -12t53.5 12l404 221q17 9 21 22h-133q-4 -7 -14 -12zM55 509l405 -222q22 -12 53.5 -12t53.5 12l404 221q22 13 22 30t-22 29l-405 222q-22 12 -53.5 12t-53.5 -12l-404 -221q-22 -12 -22 -29.5t22 -29.5z" />
    <glyph glyph-name="store" unicode="&#xe630;" horiz-adv-x="1227" 
d="M978 511l-129 82q-29 19 -29 53v6h-487q-36 0 -66 -26t-34 -63l-78 -602q-5 -37 18 -63t60 -26h738q37 0 60 26t18 63zM775 593q10 0 17 -7t7 -17.5t-7 -17.5t-17 -7t-17.5 7t-7.5 17.5t7.5 17.5t17.5 7zM442 593q10 0 17.5 -7t7.5 -17.5t-7.5 -17.5t-17.5 -7t-17 7
t-7 17.5t7 17.5t17 7zM797 271l-75 -72q-6 -4 -5 -14v-1l18 -103q1 -3 1 -6q0 -8 -5 -15q-6 -7 -16 -7q-7 0 -13 4l-92 49q-3 2 -8 2t-8 -2l-92 -49q-6 -4 -13 -4v0q-10 0 -16 7q-5 7 -5 15q0 3 1 6l18 103v1q1 10 -5 14l-75 72q-8 8 -8.5 18t7.5 16q6 4 14 5l103 14
q3 1 7 4q5 3 6 6l45 93q3 6 7 10q6 5 14 5t14 -5q4 -4 7 -10l45 -93q1 -3 5.5 -6t7.5 -4l103 -14q8 -1 14 -5q8 -6 7.5 -16t-8.5 -18zM1122 624l-181 115q-15 10 -33.5 6t-27.5 -20l-12 -17q-25 18 -50 18q-17 -1 -32 -8q-11 65 -50 112q-55 66 -134 66t-134 -66
q-53 -64 -53 -154h35q0 77 46 131q44 53 106 53t106 -53q46 -54 46 -131h36q0 11 -1 22q13 10 29 10q19 0 41 -15l-15 -23q-10 -16 -5.5 -34t19.5 -28l181 -115q15 -9 33.5 -5t28.5 19l35 55q10 16 6 34t-20 28zM901.5 691q6.5 0 11 -4.5t4.5 -11t-4.5 -11t-11 -4.5t-11 4.5
t-4.5 11t4.5 11t11 4.5z" />
    <glyph glyph-name="order" unicode="&#xe632;" 
d="M896 156q-63 0 -107.5 -44.5t-44.5 -108t44.5 -108t107.5 -44.5t107.5 44.5t44.5 108t-44.5 108t-107.5 44.5v0zM997 44q-110 -109 -111 -109q-14 -15 -24 -5l-66 66q-10 10 1 21t21 0l54 -53l103 101q11 11 21.5 0t0.5 -21v0v0zM391 771h233q19 0 32.5 15.5t13.5 36.5
t-14 36.5t-33 15.5h-232q-19 0 -33 -15.5t-14 -37t14 -36.5t33 -15v0zM879 204q40 0 76 -16v512q0 55 -29.5 87t-87.5 32h-105q2 -9 2 -17q0 -33 -20.5 -59.5t-48.5 -26.5h-323q-29 0 -50 26.5t-21 59.5q0 8 2 17h-106q-61 0 -84 -30.5t-23 -88.5v-695q0 -59 26.5 -88.5
t86.5 -29.5h557q-45 54 -45 124q0 80 56.5 136.5t136.5 56.5v0zM285 555h456q13 0 22.5 -10t10.5 -24q0 -13 -11 -24t-24 -11h-457q-12 0 -20 11t-8 24t9.5 23.5t21.5 10.5v0zM491 96h-209q-12 0 -20 11t-8 24t9.5 23.5t21.5 10.5h208q12 0 21.5 -10t10.5 -24
q0 -12 -11 -23.5t-23 -11.5v0zM280 288q-12 0 -23 12.5t-11 25.5t9.5 22t22.5 9h455q13 0 22.5 -9t10.5 -22q0 -14 -8.5 -26t-20.5 -12h-457zM280 288z" />
    <glyph glyph-name="sound" unicode="&#xe69b;" 
d="M404 170q0 45 31.5 77t76.5 32t76.5 -32t31.5 -77t-31.5 -76.5t-76.5 -31.5t-76.5 31.5t-31.5 76.5v0zM647 387q0 45 32 76.5t76.5 31.5t76.5 -31.5t32 -76.5t-32 -76.5t-76.5 -31.5t-76.5 31.5t-32 76.5v0zM404 603q0 45 31.5 77t76.5 32t76.5 -32t31.5 -77t-31.5 -76.5
t-76.5 -31.5t-76.5 32t-31.5 76v0zM187 387q0 45 32 76.5t76.5 31.5t76.5 -31.5t32 -76.5t-32 -76.5t-76.5 -31.5t-76.5 31.5t-32 76.5v0zM458 387q0 22 16 38t38 16t38 -16t16 -38.5t-16 -38t-38 -15.5t-38 15.5t-16 38.5v0zM742 20q21 -30 65 -48t98 -18q2 0 4.5 2.5
t5.5 7.5t6 11.5t6 13.5t5.5 14t5 13t4 11t2.5 8l1 3q-77 11 -115 55q55 59 85 134.5t30 159.5q0 117 -58 217t-157.5 158t-217.5 58t-217.5 -58t-157.5 -158t-58 -217.5t58 -217t157.5 -157.5t217.5 -58q125 0 230 66v0v0zM742 20z" />
    <glyph glyph-name="arrow-down" unicode="&#xe600;" 
d="M493 137l-451 450q-7 7 -7 18t7.5 19t18.5 8t19 -8l432 -432l432 432q8 8 19 8t18.5 -8t7.5 -19t-7 -18l-450 -450q-8 -8 -20 -8t-19 8z" />
    <glyph glyph-name="arrow-right" unicode="&#xe625;" 
d="M744 362l-450 -450q-7 -8 -18 -8t-19 8t-8 19t8 18l432 432l-432 432q-8 8 -8 19t8 19t19 8t18 -8l450 -450q8 -8 8 -20q0 -11 -8 -19z" />
    <glyph glyph-name="arrow-left" unicode="&#xe626;" 
d="M258 403l450 451q8 7 19 7t19 -7.5t8 -18.5t-8 -19l-432 -432l432 -432q8 -8 8 -19t-8 -18.5t-19 -7.5t-19 7l-450 450q-8 8 -7 20q-1 12 7 19z" />
    <glyph glyph-name="arrow-up" unicode="&#xe627;" 
d="M493 626l-451 -450q-7 -8 -7 -19t7.5 -18.5t18.5 -7.5t19 8l432 432l432 -432q8 -8 19 -8t18.5 7.5t7.5 18.5t-7 19l-450 450q-8 8 -20 8t-19 -8z" />
    <glyph glyph-name="clock" unicode="&#xe601;" 
d="M890 -23h-762q-12 0 -18.5 11t-0.5 22l85 146v320q0 112 71.5 199t180.5 109v9q0 27 19 46.5t46.5 19.5t46.5 -19.5t19 -46.5v-10q109 -23 178 -109t69 -198v-320l85 -146q6 -11 0 -22t-19 -11v0zM506.5 -91q-27.5 0 -46.5 19.5t-19 46.5q0 9 6.5 15.5t15.5 6.5t15 -6.5
t6 -15.5t6.5 -15.5t16 -6.5t16 6.5t6.5 15.5t6 15.5t15.5 6.5t15.5 -6.5t6 -15.5q0 -27 -19 -46.5t-46.5 -19.5z" />
    <glyph glyph-name="help" unicode="&#xe602;" horiz-adv-x="1027" 
d="M514.5 864q-97.5 0 -186.5 -38t-153 -102.5t-102 -153.5t-38 -186t38 -186t102 -153.5t153 -102.5t186.5 -38t186.5 38t153.5 102.5t102.5 153.5t38 186t-38 186t-102.5 153.5t-153.5 102.5t-186.5 38zM526 71q-18 0 -31 13t-13 31t13 31t31 13t30.5 -13t12.5 -31
t-12.5 -31t-30.5 -13zM612 370q-43 -44 -50 -59t-9 -65h-49q2 54 17 82.5t60 70.5q50 47 50 98q0 45 -32 74t-77 29q-61 0 -93 -37.5t-30 -98.5h-48q0 82 45.5 129.5t127.5 47.5q66 0 110.5 -38.5t44.5 -102.5q0 -40 -17 -69.5t-50 -60.5z" />
    <glyph glyph-name="more" unicode="&#xe603;" 
d="M102 427.5q0 -38.5 27 -65.5t66 -27t66 27t27 65.5t-27 66t-66 27.5t-66 -27.5t-27 -66zM195 311q-48 0 -82 34.5t-34 82.5t34 82t82 34t82 -34t34 -82t-34 -82.5t-82 -34.5zM195 498q-29 0 -49.5 -20.5t-20.5 -49.5t20.5 -49.5t49.5 -20.5t49.5 20.5t20.5 49.5
t-20.5 49.5t-49.5 20.5zM429 427.5q0 -38.5 27.5 -65.5t66 -27t65.5 27t27 65.5t-27 66t-65.5 27.5t-66 -27.5t-27.5 -66zM522 311q-48 0 -82 34.5t-34 82.5t34 82t82 34t82.5 -34t34.5 -82t-34.5 -82.5t-82.5 -34.5zM522 498q-29 0 -49.5 -20.5t-20.5 -49.5t20.5 -49.5
t49.5 -20.5t49.5 20.5t20.5 49.5t-20.5 49.5t-49.5 20.5zM746 427.5q0 -38.5 27.5 -65.5t66 -27t65.5 27t27 65.5t-27 66t-65.5 27.5t-66 -27.5t-27.5 -66zM839 311q-48 0 -82 34.5t-34 82.5t34 82t82 34t82.5 -34t34.5 -82t-34.5 -82.5t-82.5 -34.5zM839 498
q-29 0 -49.5 -20.5t-20.5 -49.5t20.5 -49.5t49.5 -20.5t49.5 20.5t20.5 49.5t-20.5 49.5t-49.5 20.5z" />
    <glyph glyph-name="lock" unicode="&#xe604;" 
d="M884 -94h-744v517h122v189q0 103 73.5 176.5t176.5 73.5t176.5 -73.5t73.5 -176.5v-189h122v-517zM306 423h412v189q0 85 -60.5 145.5t-145.5 60.5t-145.5 -60.5t-60.5 -145.5v-189z" />
    <glyph glyph-name="user" unicode="&#xe605;" 
d="M510 343h-9h-8q-95 0 -160.5 70t-65.5 171h482q0 -95 -68 -164q-6 -7 -6 -16t6.5 -15t15.5 -6t15 6q80 82 80 195q0 116 -83 198t-201 82t-201 -82t-83 -198q0 -86 42.5 -155.5t113.5 -103.5q-134 -40 -220 -148.5t-86 -245.5q0 -11 8.5 -17.5t18.5 -4.5h6h817
q9 0 15.5 6t6.5 16q0 111 -58.5 206.5t-159 150.5t-218.5 55z" />
    <glyph glyph-name="user-search" unicode="&#xe606;" 
d="M944 20l-71 71q36 49 36 108q0 77 -54.5 131.5t-132 54.5t-132 -54.5t-54.5 -131.5t54.5 -131.5t132.5 -54.5q40 0 78 18l78 -77q13 -13 32.5 -13t33 13.5t13.5 32.5t-14 33zM722.5 87q-46.5 0 -79.5 33t-33 79.5t33 79t79.5 32.5t79.5 -32.5t33 -79t-33 -79.5t-79.5 -33
zM480 132q3 -16 10.5 -34.5t22.5 -38t38 -38.5q32 -26 57 -38q-6 -1 -57 -7q-66 -7 -146 -7h-75q-80 3 -116 8q-77 8 -109 18q-15 5 -23 14q-11 11 -15 42q-5 35 4 90q5 32 25.5 48t47.5 26t56.5 18t52.5 22q20 13 27 21q9 9 13 21q4 10 4 20v21q-2 22 -13.5 33t-26.5 23
q-7 6 -12 16.5t-9 21.5q-5 13 -9 27q-6 1 -12 6q-5 4 -10.5 11.5t-10 22t-3 26t4.5 21.5q4 10 11 19q0 32 3 64q3 28 12 59t27 56q16 23 35.5 38t40 23.5t41.5 12t40 3.5q25 0 47.5 -6t42 -15.5t34.5 -21.5t25 -24q21 -27 32 -60t15 -62q4 -34 3 -68q6 -5 10 -11
q3 -6 5 -15.5t1 -23.5q-2 -19 -7.5 -29.5t-12.5 -16.5q-8 -7 -16 -9q-4 -14 -9 -27q-4 -11 -9 -21.5t-12 -16.5q-8 -7 -12 -13.5t-7 -13.5l-6 -14q-3 -9 -9 -18q-21 -34 -30 -56q-12 -28 -16 -51q-4 -26 -2.5 -49.5t7.5 -46.5v0z" />
    <glyph glyph-name="email" unicode="&#xe607;" 
d="M848 784h-666q-60 0 -102.5 -42.5t-42.5 -102.5v-510q0 -60 42.5 -102.5t102.5 -42.5h666q60 0 102.5 42.5t42.5 102.5v510q0 60 -42.5 102.5t-102.5 42.5zM906 620l-390 -252q-5 -3 -11 -3q-7 0 -12 3l-369 252q-7 5 -8.5 13.5t3 15.5t13 9t15.5 -3l358 -245l378 245
q7 5 15.5 3t13.5 -9t3 -15.5t-9 -13.5z" />
    <glyph glyph-name="save" unicode="&#xe608;" 
d="M32 864v-823q0 -56 40.5 -96.5t96.5 -40.5h823v960h-960zM786 -27h-274v137h-137v-137h-137v274h548v-274zM855 453q0 -26 -21.5 -47.5t-47.5 -21.5h-548q-26 0 -47.5 21.5t-21.5 47.5v342h686v-342z" />
    <glyph glyph-name="del" unicode="&#xe609;" 
d="M512 864q-198 0 -339 -141t-141 -339q0 -130 64.5 -240.5t175 -175t240.5 -64.5t240.5 64.5t175 175t64.5 240.5t-64.5 240.5t-175 175t-240.5 64.5zM732 366q-6 -6 -15 -6h-409q-8 0 -14.5 6t-6.5 14.5t6.5 14.5t14.5 6h409q9 0 15 -6t6 -14.5t-6 -14.5z" />
    <glyph glyph-name="sucess" unicode="&#xe60a;" horiz-adv-x="1026" 
d="M512 864q-130 0 -240.5 -64.5t-175 -175t-64.5 -240.5t64.5 -240.5t175 -175t240.5 -64.5t240.5 64.5t175 175t64.5 240.5t-64.5 240.5t-175 175t-240.5 64.5zM755 509l-276 -277v0q-3 -3 -6 -4q-1 0 -2 -1q-4 -1 -7 -1v0v0v0q-4 0 -8 1l-2 1l-2 2l-180 122q-7 5 -8.5 14
t3.5 16.5t14 9t16 -3.5l164 -112l263 263q6 7 15 7t15.5 -6.5t6.5 -15.5t-6 -15z" />
    <glyph glyph-name="time" unicode="&#xe62a;" 
d="M515 -128q-100 0 -191 39t-156.5 104.5t-104.5 157t-39 191.5t39 191t104.5 156.5t156.5 104.5t191 39t191 -39t157 -104.5t105 -156.5t39 -191t-39 -191.5t-105 -157t-157 -104.5t-191 -39zM515.5 794q-116.5 0 -216 -57.5t-157 -157t-57.5 -216t57.5 -215.5t157 -157
t216 -58t215.5 58t156.5 157t57.5 215.5t-57.5 216t-156.5 157t-215.5 57.5zM777 302h-262q-14 0 -23 11q-7 9 -7 19v1v0v0v307q0 13 9 22t21.5 9t21.5 -9t9 -22v-276h231q12 0 21 -9t9 -22t-8.5 -22t-21.5 -9z" />
    <glyph glyph-name="gear" unicode="&#xe60b;" 
d="M992 311v162l-100 4q-17 66 -55 124l66 71l-115 115l-73 -69q-59 36 -126 49l-4 97h-162l-4 -100q-67 -17 -124 -55l-70 66l-116 -115l69 -73q-36 -59 -49 -126l-97 -4v-162l100 -4q17 -66 55 -124l-66 -70l115 -116l73 69q59 -36 126 -49l4 -97h162l4 100q66 17 124 55
l70 -66l116 115l-69 73q36 59 49 126zM512 220q-68 0 -116 48t-48 116t48 116t116 48t116 -48t48 -116t-48 -116t-116 -48zM512 507q-51 0 -87 -36t-36 -87t36 -87t87 -36t87 36t36 87t-36 87t-87 36z" />
    <glyph glyph-name="refresh" unicode="&#xe60c;" horiz-adv-x="1025" 
d="M699 118q-86 -61 -191 -60q-13 1 -27 2q-2 0 -6 0.5t-5 0.5l-21 3q-2 1 -12 3q-13 3 -20 5q-2 1 -5.5 2l-3.5 1q-14 5 -22 9q-2 0 -5 2q-15 6 -25 12l-0.5 0.5l-0.5 0.5q-41 23 -74 56q-1 0 -1 1q-10 10 -20 22q-1 1 -2 2.5t-2 2.5q-71 91 -71 206h75q4 0 5.5 3t-0.5 6
l-127 193q-2 3 -5 3t-5 -3l-127 -193q-2 -3 -0.5 -6t5.5 -3h75q0 -135 76 -247q1 0 1.5 -1t0.5 -2q3 -4 16 -20q5 -7 6 -8q10 -12 25 -28l0.5 -1t1.5 -1q43 -44 97 -73l2 -2q14 -8 32 -15q1 -1 3.5 -2t4.5 -2q11 -5 27 -10q10 -4 14 -5q8 -2 25 -6q14 -4 17 -4q1 0 3 -1
t4 -1q4 -1 24 -3q1 0 4 -0.5t4 -0.5q24 -3 43 -3q135 0 246 79q18 13 21.5 34t-8.5 39t-33.5 21.5t-38.5 -8.5zM941 389q0 135 -75 246q-1 1 -1.5 2t-0.5 2q-6 8 -19 24l-1 1.5l-1 1.5q-66 81 -161 122q-1 1 -2.5 1.5t-2.5 1.5q-12 5 -30 11q-1 0 -5 1.5t-6 2.5q-11 3 -27 7
q-14 3 -15 3q-2 0 -4.5 1t-3.5 1q-3 0 -6.5 0.5t-7.5 1t-6 0.5q-1 1 -6.5 1.5t-7.5 0.5q-15 2 -34 2h-3.5h-3.5h-0.5h-0.5q-135 0 -245 -78q-18 -13 -21.5 -34t8.5 -39t33.5 -21.5t38.5 8.5q85 61 190 60q14 0 29 -2q1 0 4 -0.5t4 -0.5q13 -1 23 -3q1 -1 10 -3q13 -3 22 -6
q2 0 4 -1t3 -1q14 -4 25 -9l1 -0.5l1 -0.5q73 -32 123 -94h0.5h0.5q74 -92 74 -210h-76q-3 0 -4.5 -3t0.5 -5l127 -194q2 -2 5 -2t4 2l128 194q2 2 0.5 5t-5.5 3h-76z" />
    <glyph glyph-name="magnifier" unicode="&#xe60d;" 
d="M990 24l-163 166q53 83 64.5 180t-20 191t-103.5 166q-83 83 -194 112t-222 0t-194 -112t-112 -194t0 -222t112 -194q74 -74 171 -105.5t197 -16.5t183 73l160 -164l121 120v0zM240.5 199q-92.5 92 -92.5 222.5t92.5 223t223 92.5t222.5 -92.5t92 -223t-92 -222.5
t-222.5 -92t-223 92z" />
    <glyph glyph-name="add" unicode="&#xe60e;" 
d="M512 864q-130 0 -240.5 -64.5t-175 -175t-64.5 -240.5t64.5 -240.5t175 -175t240.5 -64.5t240.5 64.5t175 175t64.5 240.5t-64.5 240.5t-175 175t-240.5 64.5zM732 366q-6 -6 -15 -6h-184v-185q0 -9 -6 -15t-15 -6t-15 6t-6 15v185h-183q-9 0 -15 6t-6 14.5t6 14.5t15 6
h183v192q0 9 6 15t15 6t15 -6t6 -15v-192h184q9 0 15 -6t6 -14.5t-6 -14.5z" />
    <glyph glyph-name="exit" unicode="&#xe60f;" horiz-adv-x="1027" 
d="M584 218h-9h-92h-109h-92q-23 0 -27 19v7v261q0 25 26 25h294h9v8v232q0 17 14 22q15 6 26 -6q3 -2 7.5 -6.5l6.5 -6.5q32 -32 93.5 -93t72.5 -72q37 -38 109 -109.5t104 -103.5q18 -18 0 -36q-232 -233 -305 -305q-13 -13 -42.5 -42t-44.5 -45q-12 -12 -26 -6
q-15 5 -15 23v225v9zM402 790v-88h-8h-224q-35 0 -58.5 -23.5t-23.5 -58.5v-491q0 -31 19.5 -53t43.5 -27q10 -2 21 -2h221h9v-87l-4 -1h-235q-58 1 -103.5 39.5t-56.5 95.5q-3 16 -3 32v496q1 101 95 151q31 17 69 17h233h5z" />
    <glyph glyph-name="info" unicode="&#xe610;" 
d="M873 857h-722q-40 0 -68 -28t-28 -67v-795q0 -39 28 -67t68 -28h722q40 0 68 28t28 67v795q0 39 -28 67t-68 28zM731 106h-556q-10 0 -16.5 7t-6.5 16.5t6.5 16.5t16.5 7h556q10 0 16.5 -7t6.5 -16.5t-6.5 -16.5t-16.5 -7zM731 325h-556q-10 0 -16.5 7t-6.5 16.5
t6.5 16.5t16.5 7h556q10 0 16.5 -7t6.5 -16.5t-6.5 -16.5t-16.5 -7zM849 561h-674q-10 0 -16.5 7t-6.5 16.5t6.5 16.5t16.5 7h674q10 0 16.5 -7t6.5 -16.5t-6.5 -16.5t-16.5 -7z" />
    <glyph glyph-name="list-empty" unicode="&#xe62b;" 
d="M143.5 178q-34.5 0 -58.5 -24t-24 -58.5t24 -58.5t58.5 -24t58.5 24t24 58.5t-24 58.5t-58.5 24zM143 54q-17 0 -29 12t-12 29.5t12 29.5t29 12t29.5 -12t12.5 -29.5t-12.5 -29.5t-29.5 -12zM391 591h496q34 0 58.5 24.5t24.5 58.5t-24.5 58.5t-58.5 24.5h-496
q-34 0 -58 -24.5t-24 -58.5t24 -58.5t58 -24.5zM391 715h496q17 0 29.5 -12t12.5 -29t-12.5 -29t-29.5 -12h-496q-17 0 -29 12t-12 29t12 29t29 12zM887 178h-496q-34 0 -58 -24t-24 -58.5t24 -58.5t58 -24h496q34 0 58.5 24t24.5 58.5t-24.5 58.5t-58.5 24zM887 54h-496
q-17 0 -29 12t-12 29.5t12 29.5t29 12h496q17 0 29.5 -12t12.5 -29.5t-12.5 -29.5t-29.5 -12zM887 467h-496q-34 0 -58 -24t-24 -58.5t24 -58.5t58 -24h496q34 0 58.5 24t24.5 58.5t-24.5 58.5t-58.5 24zM887 343h-496q-17 0 -29 12.5t-12 29.5t12 29t29 12h496
q17 0 29.5 -12t12.5 -29t-12.5 -29.5t-29.5 -12.5zM143.5 467q-34.5 0 -58.5 -24t-24 -58t24 -58.5t58.5 -24.5t58.5 24.5t24 58.5t-24 58t-58.5 24zM143 343q-17 0 -29 12.5t-12 29.5t12 29t29 12t29.5 -12t12.5 -29t-12.5 -29.5t-29.5 -12.5zM143.5 757
q-34.5 0 -58.5 -24.5t-24 -58.5t24 -58.5t58.5 -24.5t58.5 24.5t24 58.5t-24 58.5t-58.5 24.5zM143 633q-17 0 -29 12t-12 29t12 29t29 12t29.5 -12t12.5 -29t-12.5 -29t-29.5 -12z" />
    <glyph glyph-name="olist" unicode="&#xe628;" 
d="M891 148h-508q-14 0 -24 -10t-10 -24.5t10 -24.5t24 -10h508q14 0 24.5 10t10.5 24.5t-10.5 24.5t-24.5 10zM891 418h-508q-14 0 -24 -10t-10 -24.5t10 -24.5t24 -10h508q14 0 24.5 10t10.5 24.5t-10.5 24.5t-24.5 10zM383 619h508q14 0 24.5 10t10.5 24.5t-10.5 25
t-24.5 10.5h-508q-14 0 -24 -10.5t-10 -25t10 -24.5t24 -10zM220 732h-86q-15 0 -25 -10t-10 -25v-86q0 -15 10 -25t25 -10h86q14 0 24.5 10t10.5 25v86q0 15 -10.5 25t-24.5 10zM220 462h-86q-15 0 -25 -10.5t-10 -24.5v-87q0 -14 10 -24t25 -10h86q14 0 24.5 10t10.5 24
v87q0 14 -10.5 24.5t-24.5 10.5zM220 191h-86q-15 0 -25 -10t-10 -24v-87q0 -14 10 -24.5t25 -10.5h86q14 0 24.5 10.5t10.5 24.5v87q0 14 -10.5 24t-24.5 10z" />
    <glyph glyph-name="list" unicode="&#xe611;" 
d="M485 460q0 -24 -17 -41t-41 -17h-206q-24 0 -41 17t-17 41v215q0 24 17 41t41 17h206q24 0 41 -17t17 -41v-215zM485 92q0 -24 -17 -41t-41 -17h-206q-24 0 -41 17t-17 41v215q0 24 17 41t41 17h206q24 0 41 -17t17 -41v-215zM862 460q0 -24 -17 -41t-41 -17h-206
q-24 0 -41 17t-17 41v215q0 24 17 41t41 17h206q24 0 41 -17t17 -41v-215zM862 92q0 -24 -17 -41t-41 -17h-206q-24 0 -41 17t-17 41v215q0 24 17 41t41 17h206q24 0 41 -17t17 -41v-215z" />
    <glyph glyph-name="trash" unicode="&#xe612;" 
d="M955 775h-300v14q0 30 -22 52t-52 22h-134q-30 0 -51.5 -22t-21.5 -52v-14h-301q-9 0 -15.5 -6t-6.5 -15.5t6.5 -15.5t15.5 -6h56l71 -808q1 -9 7 -14.5t15 -5.5h580q9 0 15 5.5t7 14.5l71 808h60q9 0 15.5 6t6.5 15.5t-6.5 15.5t-15.5 6zM394 116q0 -9 -6 -15t-15 -6
t-15.5 6t-6.5 15v415q0 9 6.5 15t15.5 6t15 -6t6 -15v-415zM536 116q0 -9 -6.5 -15t-15.5 -6t-15.5 6t-6.5 15v415q0 9 6.5 15t15.5 6t15.5 -6t6.5 -15v-415zM611 775h-194v14q0 12 9 21t21 9h134q12 0 21 -9t9 -21v-14zM678 116q0 -9 -6.5 -15t-15.5 -6t-15.5 6t-6.5 15
v415q0 9 6.5 15t15.5 6t15.5 -6t6.5 -15v-415z" />
    <glyph glyph-name="close" unicode="&#xe613;" horiz-adv-x="1026" 
d="M512 864q-198 0 -339 -141t-141 -339q0 -130 64.5 -240.5t175 -175t240.5 -64.5t240.5 64.5t175 175t64.5 240.5t-64.5 240.5t-175 175t-240.5 64.5zM672 251q6 -6 6 -15t-6 -15t-15 -6t-15 6l-132 132l-131 -132q-6 -6 -15 -6t-15 6t-6 15t6 15l132 131l-128 128
q-6 6 -6 15t6 15t15 6t15 -6l127 -128l135 135q6 6 15 6t15 -6t6 -15t-6 -15l-135 -135z" />
    <glyph glyph-name="tools" unicode="&#xe614;" 
d="M942 693q26 -61 13 -130.5t-62 -119.5q-54 -55 -129.5 -65t-138.5 28l-62 -69l44 -45l26 27q10 10 24.5 10t24.5 -10l214 -221q10 -11 10 -25.5t-10 -24.5l-97 -100q-11 -11 -25 -11t-24 11l-215 221q-10 10 -10 24.5t10 25.5l24 24l-42 44l-296 -331q-20 -21 -48.5 -21
t-49.5 21l-24 25q-20 21 -20 50t20 50l337 289l-224 229h-71l-81 135l65 67l135 -84l1 -71l227 -232l66 56q-49 67 -43.5 152t65.5 146q48 49 115.5 62.5t127.5 -12.5l-145 -147l122 -124zM180 45.5q-10 10.5 -24.5 10.5t-24.5 -10.5t-10 -25t10 -25t24.5 -10.5t24.5 10.5
t10 25t-10 25z" />
    <glyph glyph-name="surface" unicode="&#xe62c;" horiz-adv-x="1030" 
d="M996 145h-11v601h11q14 0 23.5 9.5t9.5 23.5t-9.5 24t-23.5 10h-957q-14 0 -24 -10t-10 -24t10 -23.5t24 -9.5h11v-601h-11q-14 0 -24 -10t-10 -23.5t10 -23.5t24 -10h434v-67h-78q-14 0 -24 -9.5t-10 -23.5t10 -24t24 -10h222q14 0 24 10t10 24t-10 23.5t-24 9.5h-78v67
h457q14 0 23.5 10t9.5 23.5t-9.5 23.5t-23.5 10zM116 145v601h802v-601h-802zM763 595l-205 -205l-110 111q-7 6 -16 6t-16 -6l-173 -173q-7 -7 -7 -16t7 -15.5t16 -6.5t16 6l157 157l110 -110q7 -6 16 -6t16 6l220 221q7 6 7 15.5t-7 16t-16 6.5t-15 -7z" />
    <glyph glyph-name="grade" unicode="&#xe615;" 
d="M1012 789v-23q-25 0 -53.5 -5.5t-37.5 -14.5q-21 -21 -48 -92l-267 -674l-171 -1l-295 661q-35 78 -60.5 102t-67.5 24v23h461v-23q-84 0 -102.5 -8t-18.5 -36q0 -17 20 -62t29 -67l181 -405l177 440q7 22 16 47q7 26 7 36q0 33 -23 44q-11 5 -47.5 8t-62.5 3v23h363z
" />
    <glyph glyph-name="location" unicode="&#xe616;" 
d="M455 539.5q0 -23.5 16.5 -40.5t40.5 -17t40.5 17t16.5 40.5t-16.5 40.5t-40.5 17t-40.5 -17t-16.5 -40.5zM512 860q-129 0 -220 -91t-91 -220q0 -91 49 -167v0l243 -462q6 -12 19 -12v0q13 0 19 12l249 471q1 2 1 3q42 72 42 155q0 129 -91 220t-220 91zM512 439
q-42 0 -71.5 29.5t-29.5 71t29.5 71t71.5 29.5t71.5 -29.5t29.5 -71t-29.5 -71t-71.5 -29.5z" />
    <glyph glyph-name="file" unicode="&#xe617;" horiz-adv-x="1028" 
d="M814 602h-596q-9 0 -15 -6.5t-6 -15.5t6 -15.5t15 -6.5h596q9 0 15.5 6.5t6.5 15.5t-6.5 15.5t-15.5 6.5v0zM836 713h-639q-9 0 -15.5 -6.5t-6.5 -15.5t6.5 -15.5t15.5 -6.5h639q8 0 14.5 6.5t6.5 15.5t-6.5 15.5t-14.5 6.5v0zM1016 447l-84 352q0 1 -1 2
q-11 29 -29.5 43t-54.5 14l-664 -1q-31 0 -51 -14t-32 -44l-1 -2l-83 -359q-11 -10 -11 -24v-464q0 -18 17 -32.5t35 -14.5h937q16 0 24.5 13.5t8.5 33.5v464q0 22 -11 33v0zM772 92h-511v161h511v-161zM708 416q-45 -1 -68 -1h-237l-78 1h-275l90 368q7 17 15.5 23t28.5 6
l664 2q21 0 29 -6t14 -23l91 -370h-274z" />
    <glyph glyph-name="car" unicode="&#xe618;" 
d="M397.5 -13q-21.5 0 -37 -15t-15.5 -36t15.5 -36.5t37 -15.5t36.5 15.5t15 36.5t-15 36t-36.5 15zM720.5 -13q-21.5 0 -36.5 -15t-15 -36t15 -36.5t36.5 -15.5t37 15.5t15 36.5t-15.5 36t-36.5 15zM923 49h-631l-14 83l594 100q16 3 19 20l76 489q1 10 -5.5 18.5
t-17.5 8.5h-755l-17 67q-5 20 -23 31t-38 5l-37 -9q-9 -2 -14 -10.5t-2.5 -17.5t10.5 -14t18 -3l36 9q4 1 5 -2l24 -96q0 -4 3 -7l74 -573q0 -1 0.5 -2t0.5 -2l20 -122l0.5 -1t0.5 -2q1 -2 2 -3q1 -2 2.5 -4.5t2.5 -2.5q1 -1 4 -3l1 -0.5t2 -0.5q4 -2 8 -2v0v0h651
q9 0 16 6.5t7 16.5t-7 16.5t-16 6.5v0z" />
    <glyph glyph-name="vip" unicode="&#xe619;" 
d="M832 715q-9 34 -46 28q-38 -5 -35 -44q2 -8 0.5 -16.5t-9.5 -13.5q-16 -9 -124 -76q-51 64 -54 67q-1 1 -2 3q-7 8 -10 12.5t-6.5 12t-2 15t6.5 15.5q13 21 -14 43q-22 17 -45 3q-13 -8 -19 -19.5t0 -21.5q5 -10 6.5 -18t-2 -16t-6 -12t-10.5 -13.5t-10 -11.5
q-9 -11 -25 -31.5t-20 -24.5v0v0q-29 10 -74.5 41.5t-55.5 36.5q-4 2 -5.5 5.5t-1.5 5.5t0.5 6.5t0.5 6.5q3 42 -38 46q-17 2 -28.5 -6.5t-14.5 -25.5q-4 -20 4.5 -33t28.5 -16q12 -2 17.5 -8t9.5 -18q5 -20 20 -68.5t22 -75.5q3 -14 9.5 -19.5t19.5 -5.5q23 0 184 2
q179 -2 202 -3q14 0 20.5 6t9.5 20q18 64 40 140l4.5 13.5t7.5 10t15 7.5q19 4 27 17.5t3 33.5v0zM224 166l-73 204h-88v-20l140 -351h44l145 348v23h-91zM564 286h38v84h-168v-84h43v-202h-43v-85h176v83l-46 3v201zM868 370h-179v-371h83v92l89 5q4 0 10.5 2t23 11.5
t29.5 23t23 40.5t10 61.5t-9 61t-22 40t-26 22t-23 10.5l-9 2v0zM845 185h-69v99h64q2 0 4 -1.5t8 -5.5t10.5 -9t8 -14t3.5 -20q0 -16 -7 -28.5t-15 -16.5l-7 -4v0zM845 185z" />
    <glyph glyph-name="crown" unicode="&#xe61a;" horiz-adv-x="1304" 
d="M1117 457q-9 0 -19 2l-14 -64q-2 -65 -39 -289v0h-788q-23 224 -29 292l-12 65q-17 -6 -32 -6q-42 0 -72 30t-30 72.5t30 72.5t72.5 30t72 -30t29.5 -73q0 -24 -12 -47l187 -70l157 255q-30 10 -49.5 36.5t-19.5 60.5q0 42 30 72t72 30t72 -30t30 -72q0 -34 -19.5 -60.5
t-50.5 -36.5l157 -255l186 73q-11 22 -11 44q0 43 30 73t72.5 30t72.5 -30t30 -72.5t-30 -72.5t-72 -30h-1zM1045 -11q-31 -64 -71 -90.5t-104 -26.5h-438q-54 0 -102 28t-73 89v29h788v-29v0zM1045 -11z" />
    <glyph glyph-name="unlock" unicode="&#xe61b;" 
d="M887 -91h-750v513h124v189q0 103 73.5 175.5t177.5 72.5t177.5 -72.5t73.5 -175.5v-59h-41v59q0 86 -61.5 146.5t-148.5 60.5t-148.5 -60.5t-61.5 -146.5v-189h585v-513v0z" />
    <glyph glyph-name="detailed" unicode="&#xe62d;" 
d="M923 854h-814q-28 0 -48 -19.5t-20 -47.5v-815q0 -28 20 -48t48 -20h814q28 0 48 20t20 48v815q0 28 -20 47.5t-48 19.5zM923 -28h-814v815h814v-815zM380 651h407v-68h-407v68zM244 651h68v-68h-68v68zM380 515h407v-68h-407v68zM244 515h68v-68h-68v68zM380 311h407
v-68h-407v68zM244 311h68v-68h-68v68zM380 176h407v-68h-407v68zM244 176h68v-68h-68v68z" />
    <glyph glyph-name="date1" unicode="&#xe61c;" 
d="M32 864v-960h960v960h-960zM624 753h105v-104h-105v104zM295 753h104v-104h-104v104zM950 -54h-876v574h876v-574zM347 53h53v378h-118v-43h65v-335zM650 94q-64 4 -64 73h-53q-2 -116 115 -116q122 2 127 133q-7 129 -111 135q-47 -2 -65 -31h-2l14 96h145v47h-192
l-23 -188l56 -12q14 37 59 39q63 -2 65 -84q0 -92 -71 -92z" />
    <glyph glyph-name="home" unicode="&#xe61d;" horiz-adv-x="1028" 
d="M988 443l-457 415q-1 0 -2 0.5t-1 1.5q-3 1 -4 2q-1 0 -4 0.5t-4 0.5t-4 -0.5t-4 -1t-4 -1.5q0 -1 -1 -1.5l-1 -0.5l-463 -415q-6 -6 -6.5 -15t5.5 -16t16 -7q8 0 14 5l56 50l86 -537q2 -8 8 -13t14 -5h204q9 0 15.5 6t6.5 15v1q1 2 1 5v155q0 7 15 14t37 7t37 -7t15 -14
v-161q0 -4 3 -7q6 -14 20 -14h215q8 0 14 5t8 13l85 534l51 -47q6 -5 15 -5q10 0 16 7q6 6 5.5 15.5t-7.5 15.5z" />
    <glyph glyph-name="camera" unicode="&#xe61e;" 
d="M512 538q-83 0 -141.5 -59t-58.5 -141.5t58.5 -141.5t141.5 -59t141.5 59t58.5 141.5t-58.5 141.5t-141.5 59zM957 717h-239l-16 114q-1 8 -7.5 13.5t-14.5 5.5h-336q-8 0 -14.5 -5.5t-7.5 -13.5l-16 -114h-239q-28 0 -47.5 -21t-19.5 -51v-656q0 -30 19.5 -51.5
t47.5 -21.5h890q28 0 47.5 21.5t19.5 51.5v656q0 30 -19.5 51t-47.5 21zM512 93q-101 0 -173 71.5t-72 173t72 173t173 71.5t173 -71.5t72 -173t-72 -173t-173 -71.5z" />
    <glyph glyph-name="reset" unicode="&#xe61f;" 
d="M845 728q-50 49 -112 81q-104 54 -221 54q-97 0 -186 -38t-153 -102.5t-102 -153t-38 -186t38 -186.5t102 -153t153 -102t186 -38t186 38t153 102t102 153t38 186q0 99 -37.5 188t-108.5 157zM509 12q-101 0 -186.5 50t-135 135.5t-49.5 186.5t49.5 186.5t135 135
t186.5 49.5q105 0 195 -54q7 -5 9 -13.5t-2.5 -16t-13 -9.5t-15.5 3q-79 49 -173 49q-89 0 -165 -44.5t-120.5 -120.5t-44.5 -165.5t44.5 -165.5t120.5 -120t165.5 -44t165.5 44t120 120t44 166q0 8 6 14.5t15 6.5t15 -6.5t6 -14.5q0 -101 -50 -186.5t-135.5 -135.5
t-186.5 -50v0zM586 582q0 -32 -22.5 -54t-54 -22t-54 22t-22.5 54t22.5 54t54 22t54 -22t22.5 -54zM474 582q0 -14 10.5 -24.5t25 -10.5t24.5 10.5t10 24.5t-10 24.5t-24.5 10.5t-25 -10.5t-10.5 -24.5z" />
    <glyph glyph-name="heart-empty" unicode="&#xe620;" 
d="M512 -84l-426 428q-83 86 -83 204q0 122 86.5 208.5t208.5 86.5q61 0 116.5 -24t97.5 -69q42 45 97.5 69t116.5 24q122 0 208.5 -86.5t86.5 -208.5q0 -125 -90 -211zM298 796q-103 0 -175.5 -72.5t-72.5 -175.5q0 -99 69 -171l393 -395l386 388q76 73 76 178
q0 103 -72.5 175.5t-175.5 72.5q-58 0 -109 -25t-87 -71l-18 -24l-18 24q-36 46 -87 71t-109 25z" />
    <glyph glyph-name="heart" unicode="&#xe621;" 
d="M512 -84l-426 428q-83 86 -83 204q0 122 86.5 208.5t208.5 86.5q61 0 116.5 -24t97.5 -69q42 45 97.5 69t116.5 24q122 0 208.5 -86.5t86.5 -208.5q0 -125 -90 -211z" />
    <glyph glyph-name="shake" unicode="&#xe622;" 
d="M919 860l-10 -40q40 -10 61 -46t10 -76l39 -11q15 56 -14 107t-86 66zM54.5 -1q-20.5 36 -10.5 76l-39 11q-15 -57 14 -108q29 -50 86 -65l10 40q-40 10 -60.5 46zM762 787l-266 71q-66 18 -124.5 -16t-75.5 -99l-150 -558q-17 -65 16.5 -123.5t99.5 -75.5l266 -72
q66 -17 124.5 16.5t75.5 99.5l150 557q17 65 -16.5 123.5t-99.5 76.5zM781 519l-102 -382q-9 -33 -38.5 -50t-61.5 -8l-278 74q-33 9 -50 38.5t-8 62.5l103 382q8 33 37.5 49.5t62.5 8.5l278 -75q32 -9 49 -38t8 -62z" />
    <glyph glyph-name="reserve" unicode="&#xe623;" horiz-adv-x="1027" 
d="M708 -74q25 8 48 19q-11 4 -21 9zM976 182q4 10 8 21l-12 -13q2 -3 4 -8zM621 673h-109v-328l104 -105l73 73l-68 68v292zM584 855q-77 0 -143 -20.5t-109 -51t-78 -72.5t-53 -76.5t-31 -72t-16 -51t-4 -20.5v0h-145l217 -219l218 219h-181q1 5 4 14t14.5 35.5t26.5 51
t42 53.5t59 50.5t79 36t100 14.5q62 0 113.5 -19.5t86 -51.5t60 -70.5t39.5 -80.5t20.5 -77.5t6.5 -65.5q0 -50 -24 -108q3 -1 5 -2l44 44l65 -64q19 66 19 130q0 47 -11 98t-32 104.5t-57 102t-82.5 86.5t-111.5 60.5t-141 22.5zM648 28q-33 -11 -64 -11q-34 1 -69 13
t-60.5 27.5t-46 31.5t-31 26.5l-10.5 10.5l-108 -109q5 -4 14.5 -11.5t42.5 -26.5t68.5 -33.5t90 -26t109.5 -11.5q51 0 98 11l-72 71zM1026 73v79h-58q-6 22 -17 42l41 41l-57 56l-41 -41q-19 11 -41 17v58h-80v-58q-21 -6 -41 -17l-41 41l-56 -56l41 -41q-12 -20 -17 -42
h-58v-79h58q5 -22 17 -41l-41 -42l56 -56l41 41q20 -11 41 -17v-58h80v58q22 6 41 17l41 -41l57 56l-41 42q11 19 17 41h58zM813 6q-44 0 -75 31t-31 75.5t31 75.5t75 31t75.5 -31t31.5 -75.5t-31.5 -75.5t-75.5 -31z" />
    <glyph glyph-name="top" unicode="&#xe624;" 
d="M896 828h-769q-27 0 -45 -18.5t-18 -44.5t18 -44.5t45 -18.5h769q26 0 44.5 18.5t18.5 44.5t-18.5 44.5t-44.5 18.5zM558 637q-3 2 -5 4q0 1 -1 1.5l-1 0.5q-2 2 -2.5 2t-3 1.5t-3 1.5t-2.5 1.5t-2.5 1.5t-3 1t-3.5 1l-2.5 0.5t-3 0.5t-3.5 1h-1h-2q-3 1 -6 1v0v0h-0.5
h-0.5q-26 0 -45 -19l-318 -318q-19 -19 -19 -45t18.5 -44.5t44.5 -18.5t45 19l212 213v-440q0 -26 18.5 -44.5t44.5 -18.5t44.5 18.5t18.5 44.5v438l211 -211q18 -19 44 -19t44.5 18.5t18.5 44.5t-18 45z" />
    <glyph glyph-name="app" unicode="&#xe631;" 
d="M502 488v-92h26q53 0 53 46t-52 46h-27zM853 606v255q0 28 -20 48t-48 20h-543q-29 0 -48.5 -20t-19.5 -48v-255h-127v-425h127v-272q0 -28 19.5 -48t48.5 -20h543q28 0 48 20t20 48v272h126v425h-126zM785 844v-238h-543v238h543zM645 445q0 -44 -32 -70t-80 -25h-31
v-98h-60v282h97q106 0 106 -89zM209 316l-21 -64h-66l104 282h71l101 -282h-65l-22 64h-102zM513.5 -125q-14.5 0 -24.5 10t-10 24t10 24t24.5 10t24 -10t9.5 -24t-9.5 -24t-24 -10zM785 -23h-543v204h543v-204zM850.5 375q-31.5 -26 -79.5 -25h-31v-98h-60v282h97
q105 0 105 -89q0 -44 -31.5 -70zM767 488h-27v-92h26q53 0 53 46t-52 46zM261 486h-2q-1 -13 -5 -24l-32 -99h75l-32 98q-3 9 -4 25z" />
    <glyph glyph-name="eye" unicode="&#xe644;" 
d="M959 407q-4 6 -12 17t-30.5 38t-46.5 52.5t-59 57.5t-70 57q-100 71 -229 71t-229 -71q-35 -25 -70 -57t-59 -57.5t-46.5 -53t-30 -37.5t-12.5 -17q-18 -26 0 -52q5 -7 12.5 -17t30 -37.5t46.5 -53t59 -57.5t70 -57q100 -70 229 -70t229 70q35 25 70 57t59 57.5
t46.5 52.5t30.5 38t12 17q18 26 0 52zM512 222q-66 0 -112.5 46.5t-46.5 112.5t46.5 112.5t112.5 46.5t112.5 -46.5t46.5 -112.5t-46.5 -112.5t-112.5 -46.5zM603 381.5q0 -37.5 -26.5 -64.5t-64.5 -27t-64.5 27t-26.5 64.5t26.5 64t64.5 26.5t64.5 -26.5t26.5 -64z" />
    <glyph glyph-name="file2" unicode="&#xe65e;" 
d="M64 -64q-64 59 -64 153t64 152l618 603q51 52 125 52t125.5 -51.5t51.5 -125.5q0 -69 -51 -126l-463 -445q-39 -39 -96 -39q-54 0 -98 39q-40 44 -40 98.5t40 98.5l320 310q17 12 29 0q12 -17 0 -30l-320 -310q-29 -24 -29 -68.5t29 -68.5q25 -30 69.5 -30t68.5 30
l463 442q39 45 39 99t-39 98q-45 40 -99 40t-98 -40l-618 -603q-51 -51 -51 -125t51.5 -125.5t125.5 -51.5q69 0 125 51l490 475q17 13 29 0q13 -17 0 -29l-492 -473q-59 -64 -152.5 -64t-152.5 64z" />
    <glyph glyph-name="half-choice" unicode="&#xe64a;" 
d="M896 832h-768q-28 0 -46 -19.5t-18 -44.5v-768q0 -28 19.5 -46t44.5 -18h768q28 0 46 19.5t18 44.5v768q0 28 -19.5 46t-44.5 18zM832 320h-640v128h640v-128z" />
    <glyph glyph-name="mac" unicode="&#xe641;" 
d="M511.5 272q69.5 0 118.5 49t49 119v223q0 70 -49 119t-118.5 49t-118.5 -49t-49 -119v-223q0 -70 49 -119t118.5 -49zM819 426v0v0q0 17 -12.5 29.5t-29.5 12.5t-29.5 -12.5t-12.5 -29.5v0q0 -93 -65.5 -158.5t-158 -65.5t-158 65.5t-65.5 158.5v0q0 17 -12 29.5
t-29.5 12.5t-30 -12.5t-12.5 -29.5v0v0q0 -116 76.5 -202.5t189.5 -101.5v-101h-140q-17 0 -29.5 -12.5t-12.5 -29.5t12.5 -29.5t29.5 -12.5h363q18 0 30 12.5t12 29.5t-12 29.5t-30 12.5h-139v101q113 15 189 101.5t76 202.5z" />
    <glyph glyph-name="departments-add" unicode="&#xe64c;" 
d="M1033 744q0 71 -51 122t-122 51h-696q-72 0 -122.5 -51t-50.5 -122v-696q0 -72 50.5 -122.5t122.5 -50.5h696q71 0 122 50.5t51 122.5v696zM946 79q0 -49 -34.5 -83.5t-83.5 -34.5h-633q-49 0 -83.5 34.5t-34.5 83.5v633q0 49 34.5 83.5t83.5 34.5h633q49 0 83.5 -34.5
t34.5 -83.5v-633zM823 85h-103q-18 0 -30 12t-12 29v72q0 18 12 30t30 12h103q18 0 30 -12t12 -30v-72q0 -17 -12 -29t-30 -12v0zM772 292q-9 0 -15 6t-6 15v62h-477v-73q0 -8 -6 -14t-15 -6t-15 6t-6 14v94q0 8 6 14t15 6h241q-2 4 -2 11v62q0 9 6 15t14 6q9 0 15 -6t6 -15
v-62q0 -7 -3 -11h242q8 0 14.5 -6t6.5 -14v-83q0 -9 -6.5 -15t-14.5 -6v0zM606 551h-187q-17 0 -29 12.5t-12 29.5v83q0 17 12 29t29 12h187q17 0 29 -12t12 -29v-83q0 -17 -12 -29.5t-29 -12.5v0zM346 198v-72q0 -17 -12 -29t-29 -12h-104q-17 0 -29 12t-12 29v72
q0 18 12 30t29 12h104q17 0 29 -12t12 -30v0zM461 240h103q17 0 29.5 -12t12.5 -30v-72q0 -17 -12.5 -29t-29.5 -12h-103q-18 0 -30 12t-12 29v72q0 18 12 30t30 12z" />
    <glyph glyph-name="jump" unicode="&#xe649;" 
d="M983 442l-422 316v-204h-20q-96 0 -183 -37t-148.5 -100t-98 -150t-36.5 -184q0 -53 15 -112q36 159 160.5 259.5t290.5 100.5h24v-199z" />
    <glyph glyph-name="flash" unicode="&#xe64e;" 
d="M0 896v-1024h1024v1024h-1024zM766 568q-33 2 -62 -11t-46.5 -31.5t-30.5 -37.5t-19 -32l-5 -14h105v-111h-151q-19 -48 -43.5 -86.5t-47.5 -62.5t-50 -41.5t-48 -25.5t-44 -12.5t-35 -5t-25 0.5h-9v111q23 1 38.5 3t38 13t40.5 31t40 58.5t43 93.5q20 63 49 111.5
t56.5 76.5t59.5 47t55.5 26.5t47 10t31.5 2t12 -1.5v0v-112v0z" />
    <glyph glyph-name="dizhibu" unicode="&#xe684;" 
d="M484 451q0 -35 24.5 -59.5t59.5 -24.5t60 24.5t25 59.5t-25 59.5t-60 24.5t-59.5 -24.5t-24.5 -59.5v0v0zM230 876q-47 0 -80 -33t-33 -79v-84h-72q-18 0 -30.5 -12.5t-12.5 -30.5t12.5 -30.5t30.5 -12.5h72v-82h-72q-18 0 -30.5 -12.5t-12.5 -30.5t12.5 -30.5
t30.5 -12.5h72v-82h-72q-18 0 -30.5 -12.5t-12.5 -30.5t12.5 -30t30.5 -12h72v-251q0 -46 33 -79t80 -33h676q47 0 80 33t33 79v756q0 46 -33 79t-80 33h-676zM568 143q-13 0 -41 30t-56.5 73.5t-50 100.5t-21.5 104q0 48 14.5 83.5t39.5 55.5t54 29.5t61 9.5q33 0 61.5 -9
t53.5 -28.5t39.5 -55.5t14.5 -85q0 -48 -21.5 -105t-50 -100.5t-56 -73t-41.5 -29.5v0v0z" />
    <glyph glyph-name="recom" unicode="&#xe639;" 
d="M512 -115q-97 0 -185.5 38t-152.5 102t-102 152.5t-38 185.5t38 185.5t102 152.5t152.5 102t185.5 38t185.5 -38t152.5 -102t102 -152.5t38 -185.5t-38 -185.5t-102 -152.5t-152.5 -102t-185.5 -38zM512 772q-111 0 -205.5 -55t-149 -149t-54.5 -205t54.5 -205.5
t149 -149.5t205.5 -55t205.5 55t149 149.5t54.5 205.5t-54.5 205t-149 149t-205.5 55zM741 489q-10 10 -24 10t-24 -10l-249 -251l-110 113q-10 10 -24 10t-24 -9.5t-10.5 -24t9.5 -24.5l135 -138v0v0q2 -2 7 -5q1 -1 2 -1.5t2 -1.5q6 -2 13 -2t13 2l1.5 1t1.5 2l8 4v1v0
l274 276q10 10 9.5 24t-10.5 24z" />
    <glyph glyph-name="check" unicode="&#xe64b;" 
d="M776 753q43 0 74 -31t31 -74v-528q0 -43 -31 -74t-74 -31h-528q-43 0 -74 31t-31 74v528q0 43 31 74t74 31h528zM776 806h-528q-65 0 -111.5 -46.5t-46.5 -111.5v-528q0 -65 46.5 -111.5t111.5 -46.5h528q65 0 111.5 46.5t46.5 111.5v528q0 65 -46.5 111.5t-111.5 46.5z
M392 193h-3q-12 1 -18 10l-144 186q-6 9 -4.5 19.5t10 17.5t19.5 5.5t17 -10.5l127 -164l363 299q8 7 19 6t18 -9.5t6 -19.5t-10 -18l-384 -316q-7 -6 -16 -6z" />
  </font>
</defs>
</svg>
